<?xml version="1.0" encoding="iso-8859-1"?>
<!-- Generator: Adobe Illustrator 16.0.0, SVG Export Plug-In . SVG Version: 6.00 Build 0)  -->
<!DOCTYPE svg PUBLIC "-//W3C//DTD SVG 1.1//EN" "http://www.w3.org/Graphics/SVG/1.1/DTD/svg11.dtd">
<svg version="1.1" id="Capa_1" xmlns="http://www.w3.org/2000/svg" x="0px" y="0px"
     width="646.977px" height="646.977px" viewBox="0 0 646.977 646.977"
     style="enable-background:new 0 0 646.977 646.977;"
     xml:space="preserve">
<g>
	<path d="M217.359,42.088c-21.971-19.059-49.524-29.406-78.858-29.406c-25.941,0-50.8,8.242-71.88,23.835
		c-31.199,23.125-49.103,58.548-49.127,97.147c0.024,19.107,4.464,37.769,13.007,54.59l96.822-75.742L217.359,42.088z
		 M580.379,36.481c-21.044-15.57-45.902-23.799-71.867-23.799c-29.322,0-56.899,10.348-78.87,29.406l90.048,70.448l96.811,75.718
		c8.53-16.869,12.982-35.507,12.982-54.59C629.494,95.054,611.578,59.643,580.379,36.481z M355.355,73.889V63.77h1.359
		c14.149-0.012,25.641-11.551,25.641-25.7V25.688C382.343,11.515,370.828,0,356.715,0h-66.417
		c-14.102,0-25.628,11.515-25.653,25.688V38.07c0,14.174,11.515,25.688,25.653,25.688h1.347v10.131
		C149.45,89.82,39.525,211.765,39.525,355.98c0,65.25,22.524,128.432,63.602,178.967c-22.933,27.359-35.988,54.818-36.12,76.223
		c0,10.637,3.393,19.625,9.806,26.037c6.389,6.389,15.341,9.746,26.073,9.746c23.246-0.119,54-15.834,83.407-42.389
		c41.883,23.137,89.133,35.35,137.213,35.35c48.057,0,95.318-12.213,137.19-35.35c29.418,26.543,60.172,42.27,83.431,42.412h0.144
		c10.48,0,19.469-3.355,25.941-9.805c6.401-6.426,9.771-15.414,9.758-26.062c-0.096-21.357-13.163-48.766-36.072-76.174
		c41.054-50.512,63.542-113.703,63.59-178.967C607.428,211.765,497.538,89.82,355.355,73.889z M514.973,525.754
		c-1.997,2.238-4.043,4.439-6.124,6.631l-0.854,0.902c-2.105,2.164-4.235,4.318-6.689,6.701c-6.413,6.209-13.332,12.225-20.6,17.904
		l-0.638,0.469l-0.962,0.77c-1.974,1.504-4.031,3.008-6.04,4.465l-2.792,1.996c-1.973,1.385-3.971,2.756-5.968,4.08l-2.069,1.322
		l-0.71,0.471c-2.021,1.275-4.019,2.562-6.088,3.789l-0.746,0.482c-39.55,23.666-84.911,36.156-131.198,36.156
		c-46.203,0-91.48-12.453-130.969-36.037l-0.999-0.602c-2.094-1.264-4.163-2.574-6.305-3.959l-0.939-0.59l-1.588-1.01
		c-2.045-1.359-4.043-2.756-6.016-4.115c-0.854-0.613-1.708-1.215-2.695-1.926c-2.058-1.504-4.115-3.008-6.245-4.656l-0.794-0.637
		l-0.494-0.35c-9.938-7.771-19.287-16.219-27.866-25.17c-2.214-2.322-4.416-4.693-6.569-7.148l-0.458-0.492
		C90.276,478.432,67.523,418.32,67.523,355.98c0-68.377,26.639-132.653,74.96-180.998c44.001-43.965,102.357-70.388,164.395-74.358
		c2.045-0.168,4.103-0.277,6.16-0.349c3.478-0.12,6.931-0.252,10.456-0.252c3.501,0,7.015,0.132,10.479,0.252
		c2.046,0.084,4.056,0.193,6.161,0.349c62.001,3.946,120.381,30.381,164.358,74.358c48.345,48.333,74.96,112.62,74.96,180.998
		C579.453,418.596,556.52,478.938,514.973,525.754z M471.657,207.806c-39.55-39.598-92.178-61.375-148.151-61.375
		c-56.009,0-108.625,21.778-148.199,61.375c-39.586,39.586-61.376,92.214-61.376,148.151c0,55.973,21.79,108.59,61.376,148.211
		c39.585,39.551,92.226,61.34,148.199,61.34c55.962,0,108.578-21.789,148.151-61.363c39.586-39.586,61.376-92.215,61.376-148.188
		C533.033,299.984,511.255,247.368,471.657,207.806z M442.479,497.299l-2.515,7.928l-8.302-0.131
		c-7.195-0.121-12.562-6.221-14.56-8.844l-74.479-98.639c-5.968,2.742-12.489,4.199-19.119,4.211
		c-14.57,0-28.046-6.895-36.589-18.242l-47.984,16.412c-1.107,0.445-2.719,0.734-4.428,0.734c-5.835,0-11.069-3.693-13.031-9.217
		l-0.301-0.938c-1.131-3.262-0.926-7.051,0.734-10.396c1.6-3.309,4.428-5.811,7.893-6.979l47.852-16.352c0-0.289,0-0.578,0-0.854
		c0-23.428,17.603-42.75,40.284-45.53l15.906-114.317c0.927-6.75,6.774-11.839,13.656-11.839h0.638l0.662,0.072l1.179,0.144
		c3.803,0.566,6.942,2.395,9.145,5.246c2.395,3.285,3.297,6.907,2.731,10.528l-16.135,115.616
		c14.029,7.833,23.583,22.837,23.618,40.042c-0.012,8.736-2.43,17.086-6.966,24.305l75.729,100.18
		C442.407,486.121,444.056,492.449,442.479,497.299z M323.506,338.102c-9.842,0.049-17.843,8.049-17.867,17.893
		c0.012,9.805,8.025,17.795,17.867,17.83c9.83,0,17.844-7.988,17.844-17.844C341.361,346.127,333.336,338.139,323.506,338.102z"/>
</g>
<g>
</g>
<g>
</g>
<g>
</g>
<g>
</g>
<g>
</g>
<g>
</g>
<g>
</g>
<g>
</g>
<g>
</g>
<g>
</g>
<g>
</g>
<g>
</g>
<g>
</g>
<g>
</g>
<g>
</g>
</svg>