<?xml version="1.0" encoding="UTF-8"?>
<!DOCTYPE svg PUBLIC "-//W3C//DTD SVG 1.1//EN" "http://www.w3.org/Graphics/SVG/1.1/DTD/svg11.dtd">
<svg xmlns="http://www.w3.org/2000/svg" version="1.1" width="512px" height="512px"
     style="shape-rendering:geometricPrecision; text-rendering:geometricPrecision; image-rendering:optimizeQuality; fill-rule:evenodd; clip-rule:evenodd">
<g><path style="opacity:1" fill="#7d829a" d="M 232.5,-0.5 C 247.833,-0.5 263.167,-0.5 278.5,-0.5C 378.271,12.4486 449.438,64.4486 492,155.5C 502.136,180.379 508.636,206.046 511.5,232.5C 511.5,247.833 511.5,263.167 511.5,278.5C 498.551,378.271 446.551,449.438 355.5,492C 330.622,502.136 304.955,508.636 278.5,511.5C 263.167,511.5 247.833,511.5 232.5,511.5C 132.727,498.549 61.5605,446.549 19,355.5C 8.86392,330.621 2.36392,304.954 -0.5,278.5C -0.5,263.167 -0.5,247.833 -0.5,232.5C 12.4486,132.729 64.4486,61.5622 155.5,19C 180.379,8.86392 206.046,2.36392 232.5,-0.5 Z M 267.5,116.5 C 286.167,116.5 304.833,116.5 323.5,116.5C 323.5,133.167 323.5,149.833 323.5,166.5C 311.162,166.333 298.829,166.5 286.5,167C 282.104,167.73 279.27,170.23 278,174.5C 277.5,187.162 277.333,199.829 277.5,212.5C 292.833,212.5 308.167,212.5 323.5,212.5C 322.229,229.874 320.563,247.208 318.5,264.5C 304.833,264.5 291.167,264.5 277.5,264.5C 277.5,313.833 277.5,363.167 277.5,412.5C 257.167,412.5 236.833,412.5 216.5,412.5C 216.5,363.167 216.5,313.833 216.5,264.5C 206.5,264.5 196.5,264.5 186.5,264.5C 186.5,247.167 186.5,229.833 186.5,212.5C 196.5,212.5 206.5,212.5 216.5,212.5C 216.333,197.83 216.5,183.163 217,168.5C 220.927,138.408 237.761,121.075 267.5,116.5 Z"/></g>
</svg>