<?xml version="1.0" encoding="UTF-8"?>
<!DOCTYPE svg PUBLIC "-//W3C//DTD SVG 1.1//EN" "http://www.w3.org/Graphics/SVG/1.1/DTD/svg11.dtd">
<svg xmlns="http://www.w3.org/2000/svg" version="1.1" width="512px" height="512px"
     style="shape-rendering:geometricPrecision; text-rendering:geometricPrecision; image-rendering:optimizeQuality; fill-rule:evenodd; clip-rule:evenodd">
<g><path style="opacity:1" fill="#7d829a" d="M 233.5,5.5 C 319.661,0.589432 391.161,30.2561 448,94.5C 502.367,163.662 518.367,240.995 496,326.5C 468.662,410.505 413.162,466.671 329.5,495C 243.05,518.777 164.717,503.11 94.5,448C 23.427,384.467 -5.07297,305.3 9,210.5C 25.8937,128.482 71.3937,68.3154 145.5,30C 173.562,16.8211 202.895,8.6544 233.5,5.5 Z M 181.5,103.5 C 233.196,103.032 284.862,103.532 336.5,105C 380.817,114.077 404.983,141.244 409,186.5C 409.667,232.5 409.667,278.5 409,324.5C 404.558,373.275 378.058,400.775 329.5,407C 280.167,407.667 230.833,407.667 181.5,407C 132.935,400.769 106.435,373.269 102,324.5C 101.333,278.5 101.333,232.5 102,186.5C 106.616,137.72 133.116,110.053 181.5,103.5 Z M 335.5,158.5 C 349.985,160.469 355.152,168.469 351,182.5C 341.258,193.32 331.925,192.987 323,181.5C 319.879,169.735 324.046,162.068 335.5,158.5 Z M 248.5,174.5 C 287.586,173.801 315.086,191.134 331,226.5C 342.759,263.644 333.926,294.811 304.5,320C 268.654,343.277 233.987,341.611 200.5,315C 169.192,280.715 166.359,244.215 192,205.5C 206.711,187.615 225.545,177.282 248.5,174.5 Z"/></g>
<g><path style="opacity:1" fill="#7d829a" d="M 202.5,130.5 C 244.514,130.126 286.514,130.626 328.5,132C 363.823,137.668 381.657,158.502 382,194.5C 382.667,235.167 382.667,275.833 382,316.5C 381.657,352.498 363.823,373.332 328.5,379C 279.833,381 231.167,381 182.5,379C 147.177,373.332 129.343,352.498 129,316.5C 128.333,275.833 128.333,235.167 129,194.5C 128.542,172.253 137.042,154.42 154.5,141C 169.718,133.382 185.718,129.882 202.5,130.5 Z M 335.5,158.5 C 324.046,162.068 319.879,169.735 323,181.5C 331.925,192.987 341.258,193.32 351,182.5C 355.152,168.469 349.985,160.469 335.5,158.5 Z M 248.5,174.5 C 225.545,177.282 206.711,187.615 192,205.5C 166.359,244.215 169.192,280.715 200.5,315C 233.987,341.611 268.654,343.277 304.5,320C 333.926,294.811 342.759,263.644 331,226.5C 315.086,191.134 287.586,173.801 248.5,174.5 Z"/></g>
<g><path style="opacity:1" fill="#7d829a" d="M 248.5,202.5 C 281.077,201.597 300.911,216.931 308,248.5C 310.194,271.944 301.361,289.778 281.5,302C 251.595,314.803 227.429,307.97 209,281.5C 196.197,251.595 203.03,227.429 229.5,209C 235.715,206.096 242.049,203.929 248.5,202.5 Z"/></g>
</svg>