<?xml version="1.0" encoding="UTF-8"?>
<!DOCTYPE svg PUBLIC "-//W3C//DTD SVG 1.1//EN" "http://www.w3.org/Graphics/SVG/1.1/DTD/svg11.dtd">
<svg xmlns="http://www.w3.org/2000/svg" version="1.1" width="512px" height="512px"
     style="shape-rendering:geometricPrecision; text-rendering:geometricPrecision; image-rendering:optimizeQuality; fill-rule:evenodd; clip-rule:evenodd">
<g><path style="opacity:1" fill="#7d829a" d="M 238.5,-0.5 C 249.833,-0.5 261.167,-0.5 272.5,-0.5C 329.332,8.50145 367.166,40.1681 386,94.5C 399.154,156.745 379.321,205.245 326.5,240C 287.652,260.88 247.319,264.213 205.5,250C 146.008,224.541 117.841,179.375 121,114.5C 129.115,63.0557 157.281,27.5557 205.5,8C 216.356,4.06957 227.356,1.23624 238.5,-0.5 Z M 248.5,65.5 C 279.313,64.4792 301.813,77.4792 316,104.5C 327.054,136.461 318.887,162.294 291.5,182C 264.064,197.254 237.731,195.588 212.5,177C 188.099,153.531 183.599,126.698 199,96.5C 210.986,78.9252 227.486,68.5919 248.5,65.5 Z"/></g>
<g><path style="opacity:1" fill="#7d829a" d="M 364.5,511.5 C 359.167,511.5 353.833,511.5 348.5,511.5C 344.683,510.16 341.017,508.326 337.5,506C 310.621,479.287 283.288,453.12 255.5,427.5C 227.985,454.182 200.318,480.682 172.5,507C 169.107,508.62 165.774,510.12 162.5,511.5C 157.833,511.5 153.167,511.5 148.5,511.5C 133.823,506.989 124.323,497.323 120,482.5C 118.824,474.535 120.491,467.202 125,460.5C 159.5,427.333 194,394.167 228.5,361C 198.537,358.01 169.87,350.343 142.5,338C 126.819,329.573 112.652,319.073 100,306.5C 91.5182,287.275 96.0182,271.775 113.5,260C 123.472,255.402 133.472,255.402 143.5,260C 198.574,298.468 257.907,306.801 321.5,285C 335.068,279.551 347.735,272.551 359.5,264C 372.362,255.739 385.695,254.739 399.5,261C 416.061,273.659 419.561,289.159 410,307.5C 385.901,331.471 357.068,346.971 323.5,354C 310.277,356.978 296.943,359.311 283.5,361C 318.691,394.525 353.524,428.358 388,462.5C 395.281,478.617 392.114,492.451 378.5,504C 374.114,507.172 369.448,509.672 364.5,511.5 Z"/></g>
</svg>