<?xml version="1.0" encoding="UTF-8"?>
<!DOCTYPE svg PUBLIC "-//W3C//DTD SVG 1.1//EN" "http://www.w3.org/Graphics/SVG/1.1/DTD/svg11.dtd">
<svg xmlns="http://www.w3.org/2000/svg" version="1.1" width="512px" height="512px"
     style="shape-rendering:geometricPrecision; text-rendering:geometricPrecision; image-rendering:optimizeQuality; fill-rule:evenodd; clip-rule:evenodd">
<g><path style="opacity:1" fill="#7d829a" d="M 511.5,41.5 C 511.5,45.1667 511.5,48.8333 511.5,52.5C 482.166,191.664 452.999,330.997 424,470.5C 418.199,478.873 410.699,480.707 401.5,476C 362.989,448.244 324.656,420.244 286.5,392C 279.087,386.103 271.087,385.103 262.5,389C 239.457,408.379 216.123,427.379 192.5,446C 183.372,449.405 176.539,446.905 172,438.5C 156.524,389.239 141.357,339.906 126.5,290.5C 85.5981,276.032 44.9314,260.865 4.5,245C 2.44965,243.035 0.782988,240.868 -0.5,238.5C -0.5,234.833 -0.5,231.167 -0.5,227.5C 2.69649,222.89 7.02982,219.723 12.5,218C 171.578,156.863 330.578,95.5295 489.5,34C 499.215,30.1062 506.549,32.6062 511.5,41.5 Z M 396.5,124.5 C 399.955,125.128 401.122,127.128 400,130.5C 334.699,190.8 269.699,251.466 205,312.5C 201.578,317.345 199.245,322.678 198,328.5C 195.415,346.183 192.748,363.85 190,381.5C 187.668,384.791 184.835,385.291 181.5,383C 172.272,352.645 163.438,322.145 155,291.5C 153.592,284.058 155.259,277.391 160,271.5C 238.646,222.099 317.479,173.099 396.5,124.5 Z"/></g>
</svg>