<?xml version="1.0" encoding="UTF-8"?>
<!DOCTYPE svg PUBLIC "-//W3C//DTD SVG 1.1//EN" "http://www.w3.org/Graphics/SVG/1.1/DTD/svg11.dtd">
<svg xmlns="http://www.w3.org/2000/svg" version="1.1" width="512px" height="512px"
     style="shape-rendering:geometricPrecision; text-rendering:geometricPrecision; image-rendering:optimizeQuality; fill-rule:evenodd; clip-rule:evenodd">
<g><path style="opacity:1" fill="#7d829a" d="M 511.5,129.5 C 511.5,133.833 511.5,138.167 511.5,142.5C 505.937,156.957 498.77,170.624 490,183.5C 472.577,207.345 454.91,231.012 437,254.5C 434.667,258.5 432.333,262.5 430,266.5C 427.108,275.158 428.775,282.825 435,289.5C 457.065,309.564 477.732,330.897 497,353.5C 503.176,361.529 508.01,370.195 511.5,379.5C 511.5,382.833 511.5,386.167 511.5,389.5C 507.847,395.939 502.18,399.439 494.5,400C 468.459,400.628 442.459,401.461 416.5,402.5C 402.064,400.97 389.397,395.47 378.5,386C 364.799,371.968 351.466,357.634 338.5,343C 333.595,338.131 327.762,334.964 321,333.5C 313.871,335.952 308.538,340.619 305,347.5C 303.465,351.773 302.131,356.106 301,360.5C 300.11,370.191 299.11,379.858 298,389.5C 296.167,394 293,397.167 288.5,399C 242.281,407.08 199.614,398.413 160.5,373C 136.794,357.629 116.627,338.462 100,315.5C 59.5886,261.038 26.0886,202.371 -0.5,139.5C -0.5,135.833 -0.5,132.167 -0.5,128.5C 2.07624,125.377 5.40957,123.543 9.5,123C 36.5012,122.274 63.5012,121.941 90.5,122C 97.4023,123.364 102.902,126.864 107,132.5C 122.232,168.971 140.565,203.638 162,236.5C 167.637,243.982 174.804,249.315 183.5,252.5C 186.874,252.203 189.707,250.87 192,248.5C 194.993,243.189 196.993,237.522 198,231.5C 202.694,206.121 202.528,180.788 197.5,155.5C 194.362,139.7 184.695,131.367 168.5,130.5C 168.673,127.821 169.673,125.487 171.5,123.5C 179.367,115.371 189.033,111.204 200.5,111C 225.215,108.532 249.882,108.532 274.5,111C 290.539,111.373 299.039,119.54 300,135.5C 300.085,162.005 299.585,188.505 298.5,215C 298.596,221.864 299.096,228.697 300,235.5C 301.054,243.659 305.387,248.992 313,251.5C 320.043,247.469 326.376,242.469 332,236.5C 355.619,205.28 374.619,171.28 389,134.5C 390.968,128.196 395.134,124.363 401.5,123C 431.686,122.814 461.852,122.314 492,121.5C 499.695,121.608 506.195,124.274 511.5,129.5 Z"/></g>
</svg>